# xmcd CD database file
#
# Track frame offsets:
#	150
#	12276
#	26294
#	38453
#	50640
#	63931
#	81928
#	101653
#	116708
#	129746
#	139486
#	159138
#	170867
#	187111
#	206116
#
# Disc length: 4428 seconds
#
# Revision: 0
# Processed by: cddbd v1.5.2PL0 Copyright (c) Steve Scherf et al.
# Submitted via: CDex 1.72
#
DISCID=d3114a0f
DTITLE=Radio Kings, The [CDN-OVM-01-The Radio Kings-cty) - The Radio Kings
DYEAR=2001
DGENRE=Country
TTITLE0=Seven Come Eleven
TTITLE1=Southern Moon
TTITLE2=Fat And Happy
TTITLE3=Oceans Of Tears
TTITLE4=Don't
TTITLE5=Lullaby Of Tears
TTITLE6=Good Woman's Love
TTITLE7=Sugar Moon
TTITLE8=Blue Plate Special
TTITLE9=Tell Me More
TTITLE10=What Can it Be
TTITLE11=Swingin'
TTITLE12=Got You On My Minbd
TTITLE13=Seven Come Elevin(Reprise)
TTITLE14=Data
EXTD=YEAR: 2001
EXTT0=
EXTT1=
EXTT2=
EXTT3=
EXTT4=
EXTT5=
EXTT6=
EXTT7=
EXTT8=
EXTT9=
EXTT10=
EXTT11=
EXTT12=
EXTT13=
EXTT14=
PLAYORDER=
